# Blender v2.91.0 OBJ File: 'button.blend'
# www.blender.org
mtllib button.mtl
o Cube_Cube.002
v -1.000000 -0.325129 1.000000
v -1.000000 0.325129 1.000000
v -1.000000 -0.325129 -1.000000
v -1.000000 0.325129 -1.000000
v 1.000000 -0.325129 1.000000
v 1.000000 0.325129 1.000000
v 1.000000 -0.325129 -1.000000
v 1.000000 0.325129 -1.000000
vt 0.983037 0.944417
vt 0.982366 0.944417
vt 0.982366 0.943746
vt 0.983037 0.943746
vt 0.982366 0.943075
vt 0.983037 0.943075
vt 0.982366 0.942404
vt 0.983037 0.942404
vt 0.982366 0.941734
vt 0.983037 0.941734
vt 0.983708 0.943075
vt 0.983708 0.942404
vt 0.981695 0.943075
vt 0.981695 0.942404
vn -1.0000 0.0000 0.0000
vn 0.0000 0.0000 -1.0000
vn 1.0000 0.0000 0.0000
vn 0.0000 0.0000 1.0000
vn 0.0000 -1.0000 0.0000
vn 0.0000 1.0000 0.0000
usemtl Material
s off
f 1/1/1 2/2/1 4/3/1 3/4/1
f 3/4/2 4/3/2 8/5/2 7/6/2
f 7/6/3 8/5/3 6/7/3 5/8/3
f 5/8/4 6/7/4 2/9/4 1/10/4
f 3/11/5 7/6/5 5/8/5 1/12/5
f 8/5/6 4/13/6 2/14/6 6/7/6
o Cylinder_Cylinder.002
v 0.000000 0.202946 -0.882483
v 0.000000 0.873391 -0.882483
v 0.518710 0.202946 -0.713943
v 0.518710 0.873391 -0.713943
v 0.839291 0.202946 -0.272702
v 0.839291 0.873391 -0.272702
v 0.839291 0.202946 0.272702
v 0.839291 0.873391 0.272702
v 0.518710 0.202946 0.713943
v 0.518710 0.873391 0.713943
v -0.000000 0.202946 0.882483
v -0.000000 0.873391 0.882483
v -0.518710 0.202946 0.713943
v -0.518710 0.873391 0.713943
v -0.839291 0.202946 0.272702
v -0.839291 0.873391 0.272702
v -0.839291 0.202946 -0.272702
v -0.839291 0.873391 -0.272702
v -0.518710 0.202946 -0.713944
v -0.518710 0.873391 -0.713944
vt 0.023559 0.963322
vt 0.023559 0.964420
vt 0.023339 0.964420
vt 0.023339 0.963322
vt 0.023120 0.964420
vt 0.023120 0.963322
vt 0.022900 0.964420
vt 0.022900 0.963322
vt 0.022681 0.964420
vt 0.022681 0.963322
vt 0.022461 0.964420
vt 0.022461 0.963322
vt 0.022241 0.964420
vt 0.022241 0.963322
vt 0.022022 0.964420
vt 0.022022 0.963322
vt 0.021802 0.964420
vt 0.021802 0.963322
vt 0.022222 0.963200
vt 0.021912 0.963300
vt 0.021602 0.963200
vt 0.021411 0.962936
vt 0.021411 0.962610
vt 0.021602 0.962347
vt 0.021912 0.962246
vt 0.022222 0.962347
vt 0.022413 0.962610
vt 0.022413 0.962936
vt 0.021583 0.964420
vt 0.021583 0.963322
vt 0.021363 0.964420
vt 0.021363 0.963322
vt 0.023010 0.963300
vt 0.023320 0.963200
vt 0.023511 0.962936
vt 0.023511 0.962610
vt 0.023320 0.962347
vt 0.023010 0.962246
vt 0.022700 0.962347
vt 0.022509 0.962610
vt 0.022509 0.962936
vt 0.022700 0.963200
vn 0.3090 0.0000 -0.9511
vn 0.8090 0.0000 -0.5878
vn 1.0000 0.0000 0.0000
vn 0.8090 0.0000 0.5878
vn 0.3090 0.0000 0.9511
vn -0.3090 0.0000 0.9511
vn -0.8090 0.0000 0.5878
vn -1.0000 0.0000 0.0000
vn 0.0000 1.0000 0.0000
vn -0.8090 0.0000 -0.5878
vn -0.3090 0.0000 -0.9511
vn 0.0000 -1.0000 0.0000
usemtl Material
s off
f 9/15/7 10/16/7 12/17/7 11/18/7
f 11/18/8 12/17/8 14/19/8 13/20/8
f 13/20/9 14/19/9 16/21/9 15/22/9
f 15/22/10 16/21/10 18/23/10 17/24/10
f 17/24/11 18/23/11 20/25/11 19/26/11
f 19/26/12 20/25/12 22/27/12 21/28/12
f 21/28/13 22/27/13 24/29/13 23/30/13
f 23/30/14 24/29/14 26/31/14 25/32/14
f 12/33/15 10/34/15 28/35/15 26/36/15 24/37/15 22/38/15 20/39/15 18/40/15 16/41/15 14/42/15
f 25/32/16 26/31/16 28/43/16 27/44/16
f 27/44/17 28/43/17 10/45/17 9/46/17
f 9/47/18 11/48/18 13/49/18 15/50/18 17/51/18 19/52/18 21/53/18 23/54/18 25/55/18 27/56/18
o Cube.001_Cube.003
v -0.108090 -0.108090 1.951739
v -0.108090 0.108090 1.951739
v -0.108090 -0.108090 -1.951739
v -0.108090 0.108090 -1.951739
v 0.108090 -0.108090 1.951739
v 0.108090 0.108090 1.951739
v 0.108090 -0.108090 -1.951739
v 0.108090 0.108090 -1.951739
vt 0.978983 0.869078
vt 0.978171 0.869078
vt 0.978171 0.868266
vt 0.978983 0.868266
vt 0.978171 0.867454
vt 0.978983 0.867454
vt 0.978171 0.866642
vt 0.978983 0.866642
vt 0.978171 0.865830
vt 0.978983 0.865830
vt 0.979795 0.867454
vt 0.979795 0.866642
vt 0.977359 0.867454
vt 0.977359 0.866642
vn -1.0000 0.0000 0.0000
vn 0.0000 0.0000 -1.0000
vn 1.0000 0.0000 0.0000
vn 0.0000 0.0000 1.0000
vn 0.0000 -1.0000 0.0000
vn 0.0000 1.0000 0.0000
usemtl Material
s off
f 29/57/19 30/58/19 32/59/19 31/60/19
f 31/60/20 32/59/20 36/61/20 35/62/20
f 35/62/21 36/61/21 34/63/21 33/64/21
f 33/64/22 34/63/22 30/65/22 29/66/22
f 31/67/23 35/62/23 33/64/23 29/68/23
f 36/61/24 32/69/24 30/70/24 34/63/24
