# Blender v2.91.0 OBJ File: 'coil.blend'
# www.blender.org
mtllib coil.mtl
o Cylinder_Cylinder.003
v 0.000000 -0.455790 -1.543405
v 0.000000 0.455790 -1.543405
v 0.627760 -0.455790 -1.409971
v 0.627760 0.455790 -1.409971
v 1.146974 -0.455790 -1.032740
v 1.146974 0.455790 -1.032740
v 1.467866 -0.455790 -0.476938
v 1.467866 0.455790 -0.476938
v 1.534950 -0.455790 0.161330
v 1.534950 0.455790 0.161330
v 1.336628 -0.455790 0.771703
v 1.336628 0.455790 0.771703
v 0.907191 -0.455790 1.248641
v 0.907191 0.455790 1.248641
v 0.320892 -0.455790 1.509678
v 0.320892 0.455790 1.509678
v -0.320892 -0.455790 1.509678
v -0.320892 0.455790 1.509678
v -0.907191 -0.455790 1.248641
v -0.907191 0.455790 1.248641
v -1.336628 -0.455790 0.771703
v -1.336628 0.455790 0.771703
v -1.534950 -0.455790 0.161330
v -1.534950 0.455790 0.161330
v -1.467866 -0.455790 -0.476939
v -1.467866 0.455790 -0.476939
v -1.146974 -0.455790 -1.032740
v -1.146974 0.455790 -1.032740
v -0.627759 -0.455790 -1.409971
v -0.627759 0.455790 -1.409971
v 0.000000 -0.455790 -0.937460
v 0.000000 0.455790 -0.937460
v 0.381299 -0.455790 -0.856412
v 0.381299 0.455790 -0.856412
v 0.696668 -0.455790 -0.627283
v 0.696668 0.455790 -0.627283
v 0.891577 -0.455790 -0.289691
v 0.891577 0.455790 -0.289691
v 0.932324 -0.455790 0.097991
v 0.932324 0.455790 0.097991
v 0.811864 -0.455790 0.468730
v 0.811864 0.455790 0.468730
v 0.551025 -0.455790 0.758421
v 0.551025 0.455790 0.758421
v 0.194909 -0.455790 0.916974
v 0.194909 0.455790 0.916974
v -0.194909 -0.455790 0.916974
v -0.194909 0.455790 0.916974
v -0.551025 -0.455790 0.758421
v -0.551025 0.455790 0.758421
v -0.811864 -0.455790 0.468730
v -0.811864 0.455790 0.468730
v -0.932324 -0.455790 0.097991
v -0.932324 0.455790 0.097991
v -0.891577 -0.455790 -0.289691
v -0.891577 0.455790 -0.289691
v -0.696668 -0.455790 -0.627283
v -0.696668 0.455790 -0.627283
v -0.381299 -0.455790 -0.856412
v -0.381299 0.455790 -0.856412
vt 0.815249 0.957437
vt 0.815249 0.954120
vt 0.815691 0.954120
vt 0.815691 0.957437
vt 0.816133 0.954120
vt 0.816133 0.957437
vt 0.816575 0.954120
vt 0.816575 0.957437
vt 0.817018 0.954120
vt 0.817018 0.957437
vt 0.817460 0.954120
vt 0.817460 0.957437
vt 0.817902 0.954120
vt 0.817902 0.957437
vt 0.818344 0.954120
vt 0.818344 0.957437
vt 0.818786 0.954120
vt 0.818786 0.957437
vt 0.819229 0.954120
vt 0.819229 0.957437
vt 0.819671 0.954120
vt 0.819671 0.957437
vt 0.820113 0.954120
vt 0.820113 0.957437
vt 0.820555 0.954120
vt 0.820555 0.957437
vt 0.820998 0.954120
vt 0.820998 0.957437
vt 0.821440 0.954120
vt 0.821440 0.957437
vt 0.821882 0.954120
vt 0.821882 0.957437
vt 0.815249 0.955259
vt 0.815249 0.956298
vt 0.815691 0.956298
vt 0.815691 0.955259
vt 0.816133 0.956298
vt 0.816133 0.955259
vt 0.816575 0.955259
vt 0.816575 0.956298
vt 0.817018 0.956298
vt 0.817018 0.955259
vt 0.817460 0.956298
vt 0.817460 0.955259
vt 0.817902 0.956298
vt 0.817902 0.955259
vt 0.818344 0.956298
vt 0.818344 0.955259
vt 0.818786 0.956298
vt 0.818786 0.955259
vt 0.819229 0.956298
vt 0.819229 0.955259
vt 0.819671 0.956298
vt 0.819671 0.955259
vt 0.820113 0.956298
vt 0.820113 0.955259
vt 0.820555 0.956298
vt 0.820555 0.955259
vt 0.820998 0.956298
vt 0.820998 0.955259
vt 0.821440 0.956298
vt 0.821440 0.955259
vt 0.821882 0.956298
vt 0.821882 0.955259
vt 0.820023 0.960041
vt 0.819893 0.960652
vt 0.819288 0.960383
vt 0.818845 0.959891
vt 0.818640 0.959261
vt 0.818710 0.958603
vt 0.819041 0.958030
vt 0.819576 0.957640
vt 0.820224 0.957503
vt 0.820224 0.958128
vt 0.819830 0.958211
vt 0.819505 0.958448
vt 0.819304 0.958796
vt 0.819262 0.959196
vt 0.819386 0.959578
vt 0.819655 0.959877
vt 0.820871 0.957640
vt 0.821407 0.958030
vt 0.821738 0.958603
vt 0.821807 0.959261
vt 0.821602 0.959891
vt 0.821159 0.960383
vt 0.820555 0.960652
vt 0.820425 0.960041
vt 0.820792 0.959877
vt 0.821061 0.959578
vt 0.821185 0.959196
vt 0.821143 0.958796
vt 0.820942 0.958448
vt 0.820617 0.958211
vt 0.816514 0.958211
vt 0.816260 0.957640
vt 0.815724 0.958030
vt 0.815393 0.958603
vt 0.815324 0.959261
vt 0.815528 0.959891
vt 0.815971 0.960383
vt 0.816576 0.960652
vt 0.816706 0.960041
vt 0.816339 0.959877
vt 0.816070 0.959578
vt 0.815945 0.959196
vt 0.815987 0.958796
vt 0.816189 0.958448
vt 0.817238 0.960652
vt 0.817843 0.960383
vt 0.818286 0.959891
vt 0.818490 0.959261
vt 0.818421 0.958603
vt 0.818090 0.958030
vt 0.817555 0.957640
vt 0.816907 0.957503
vt 0.816907 0.958128
vt 0.817300 0.958211
vt 0.817626 0.958448
vt 0.817827 0.958796
vt 0.817869 0.959196
vt 0.817744 0.959578
vt 0.817475 0.959877
vt 0.817108 0.960041
vn 0.2079 0.0000 -0.9781
vn 0.5878 0.0000 -0.8090
vn 0.8660 0.0000 -0.5000
vn 0.9945 0.0000 -0.1045
vn 0.9511 0.0000 0.3090
vn 0.7431 0.0000 0.6691
vn 0.4067 0.0000 0.9135
vn -0.0000 0.0000 1.0000
vn -0.4067 0.0000 0.9135
vn -0.7431 0.0000 0.6691
vn -0.9511 0.0000 0.3090
vn -0.9945 0.0000 -0.1045
vn -0.8660 0.0000 -0.5000
vn -0.5878 0.0000 -0.8090
vn -0.2079 0.0000 -0.9781
vn -0.2079 0.0000 0.9781
vn -0.5878 0.0000 0.8090
vn -0.8660 0.0000 0.5000
vn -0.9945 0.0000 0.1045
vn -0.9511 0.0000 -0.3090
vn -0.7431 0.0000 -0.6691
vn -0.4067 0.0000 -0.9135
vn 0.0000 0.0000 -1.0000
vn 0.4067 0.0000 -0.9135
vn 0.7431 0.0000 -0.6691
vn 0.9511 0.0000 -0.3090
vn 0.9945 0.0000 0.1045
vn 0.8660 0.0000 0.5000
vn 0.5878 0.0000 0.8090
vn 0.2079 0.0000 0.9781
vn 0.0000 1.0000 0.0000
vn 0.0000 -1.0000 0.0000
usemtl Material
s off
f 1/1/1 2/2/1 4/3/1 3/4/1
f 3/4/2 4/3/2 6/5/2 5/6/2
f 5/6/3 6/5/3 8/7/3 7/8/3
f 7/8/4 8/7/4 10/9/4 9/10/4
f 9/10/5 10/9/5 12/11/5 11/12/5
f 11/12/6 12/11/6 14/13/6 13/14/6
f 13/14/7 14/13/7 16/15/7 15/16/7
f 15/16/8 16/15/8 18/17/8 17/18/8
f 17/18/9 18/17/9 20/19/9 19/20/9
f 19/20/10 20/19/10 22/21/10 21/22/10
f 21/22/11 22/21/11 24/23/11 23/24/11
f 23/24/12 24/23/12 26/25/12 25/26/12
f 25/26/13 26/25/13 28/27/13 27/28/13
f 27/28/14 28/27/14 30/29/14 29/30/14
f 29/30/15 30/29/15 2/31/15 1/32/15
f 32/33/16 31/34/16 33/35/16 34/36/16
f 34/36/17 33/35/17 35/37/17 36/38/17
f 38/39/18 36/38/18 35/37/18 37/40/18
f 37/40/19 39/41/19 40/42/19 38/39/19
f 39/41/20 41/43/20 42/44/20 40/42/20
f 41/43/21 43/45/21 44/46/21 42/44/21
f 43/45/22 45/47/22 46/48/22 44/46/22
f 45/47/23 47/49/23 48/50/23 46/48/23
f 47/49/24 49/51/24 50/52/24 48/50/24
f 50/52/25 49/51/25 51/53/25 52/54/25
f 52/54/26 51/53/26 53/55/26 54/56/26
f 54/56/27 53/55/27 55/57/27 56/58/27
f 56/58/28 55/57/28 57/59/28 58/60/28
f 58/60/29 57/59/29 59/61/29 60/62/29
f 60/62/30 59/61/30 31/63/30 32/64/30
f 46/65/31 16/66/31 14/67/31 12/68/31 10/69/31 8/70/31 6/71/31 4/72/31 2/73/31 32/74/31 34/75/31 36/76/31 38/77/31 40/78/31 42/79/31 44/80/31
f 32/74/31 2/73/31 30/81/31 28/82/31 26/83/31 24/84/31 22/85/31 20/86/31 18/87/31 16/66/31 46/65/31 48/88/31 50/89/31 52/90/31 54/91/31 56/92/31 58/93/31 60/94/31
f 33/95/32 3/96/32 5/97/32 7/98/32 9/99/32 11/100/32 13/101/32 15/102/32 45/103/32 43/104/32 41/105/32 39/106/32 37/107/32 35/108/32
f 45/103/32 15/102/32 17/109/32 19/110/32 21/111/32 23/112/32 25/113/32 27/114/32 29/115/32 1/116/32 3/96/32 33/95/32 31/117/32 59/118/32 57/119/32 55/120/32 53/121/32 51/122/32 49/123/32 47/124/32
o Cylinder.001_Cylinder.005
v 0.000000 0.141430 1.021669
v 0.000000 0.141430 2.792592
v 0.134508 0.043704 1.021669
v 0.134508 0.043704 2.792592
v 0.083130 -0.114419 1.021669
v 0.083130 -0.114419 2.792592
v -0.083130 -0.114419 1.021669
v -0.083130 -0.114419 2.792592
v -0.134508 0.043704 1.021669
v -0.134508 0.043704 2.792592
vt 0.989254 0.871672
vt 0.989254 0.874940
vt 0.987947 0.874940
vt 0.987947 0.871672
vt 0.986640 0.874940
vt 0.986640 0.871672
vt 0.985333 0.874940
vt 0.985333 0.871672
vt 0.985844 0.870523
vt 0.984353 0.871607
vt 0.982861 0.870523
vt 0.983431 0.868769
vt 0.985275 0.868769
vt 0.984026 0.874940
vt 0.984026 0.871672
vt 0.982719 0.874940
vt 0.982719 0.871672
vt 0.987621 0.871607
vt 0.989112 0.870523
vt 0.988543 0.868769
vt 0.986698 0.868769
vt 0.986129 0.870523
vn 0.5878 0.8090 0.0000
vn 0.9511 -0.3090 -0.0000
vn -0.0000 -1.0000 -0.0000
vn 0.0000 0.0000 1.0000
vn -0.9511 -0.3090 -0.0000
vn -0.5878 0.8090 0.0000
vn -0.0000 0.0000 -1.0000
usemtl Material
s off
f 61/125/33 62/126/33 64/127/33 63/128/33
f 63/128/34 64/127/34 66/129/34 65/130/34
f 65/130/35 66/129/35 68/131/35 67/132/35
f 64/133/36 62/134/36 70/135/36 68/136/36 66/137/36
f 67/132/37 68/131/37 70/138/37 69/139/37
f 69/139/38 70/138/38 62/140/38 61/141/38
f 61/142/39 63/143/39 65/144/39 67/145/39 69/146/39
o Cylinder.002_Cylinder.006
v 0.000000 0.141430 -2.792592
v 0.000000 0.141430 -1.021669
v 0.134508 0.043704 -2.792592
v 0.134508 0.043704 -1.021669
v 0.083130 -0.114419 -2.792592
v 0.083130 -0.114419 -1.021669
v -0.083130 -0.114419 -2.792592
v -0.083130 -0.114419 -1.021669
v -0.134508 0.043704 -2.792592
v -0.134508 0.043704 -1.021669
vt 0.977628 0.851830
vt 0.977628 0.855098
vt 0.976321 0.855098
vt 0.976321 0.851830
vt 0.975014 0.855098
vt 0.975014 0.851830
vt 0.973706 0.855098
vt 0.973706 0.851830
vt 0.974218 0.850681
vt 0.972726 0.851764
vt 0.971234 0.850681
vt 0.971804 0.848927
vt 0.973648 0.848927
vt 0.972399 0.855098
vt 0.972399 0.851830
vt 0.971092 0.855098
vt 0.971092 0.851830
vt 0.975994 0.851764
vt 0.977486 0.850681
vt 0.976916 0.848927
vt 0.975072 0.848927
vt 0.974502 0.850681
vn 0.5878 0.8090 0.0000
vn 0.9511 -0.3090 -0.0000
vn -0.0000 -1.0000 -0.0000
vn -0.0000 0.0000 1.0000
vn -0.9511 -0.3090 -0.0000
vn -0.5878 0.8090 0.0000
vn 0.0000 0.0000 -1.0000
usemtl Material
s off
f 71/147/40 72/148/40 74/149/40 73/150/40
f 73/150/41 74/149/41 76/151/41 75/152/41
f 75/152/42 76/151/42 78/153/42 77/154/42
f 74/155/43 72/156/43 80/157/43 78/158/43 76/159/43
f 77/154/44 78/153/44 80/160/44 79/161/44
f 79/161/45 80/160/45 72/162/45 71/163/45
f 71/164/46 73/165/46 75/166/46 77/167/46 79/168/46
