# Blender v2.90.1 OBJ File: 'diod.blend'
# www.blender.org
mtllib diod.mtl
o Cube
v 0.587804 0.826192 -0.382532
v 0.587804 0.826192 0.382532
v -0.587804 0.826192 -0.382532
v -0.587804 0.826192 0.382532
v 0.318979 2.678943 -0.382532
v 0.587804 2.255276 -0.382532
v 0.587804 2.255276 0.382532
v 0.318979 2.678943 0.382532
v -0.587804 2.255276 -0.382532
v -0.318979 2.678943 -0.382532
v -0.318979 2.678943 0.382532
v -0.587804 2.255276 0.382532
vt 0.070485 0.139800
vt 0.075473 0.139800
vt 0.076951 0.141278
vt 0.076951 0.144787
vt 0.075473 0.146266
vt 0.070485 0.146266
vt 0.070485 0.120400
vt 0.075473 0.120400
vt 0.075473 0.126867
vt 0.070485 0.126867
vt 0.064019 0.133333
vt 0.070485 0.133333
vt 0.064019 0.139800
vt 0.070618 0.116667
vt 0.074127 0.116667
vt 0.074127 0.123133
vt 0.070618 0.123133
vt 0.075473 0.133333
vt 0.067660 0.123133
vt 0.067660 0.116667
vt 0.069139 0.103734
vt 0.069139 0.110200
vt 0.067660 0.110200
vt 0.067660 0.103734
vt 0.076951 0.128346
vt 0.076951 0.131855
vn 0.0000 0.0000 1.0000
vn -1.0000 0.0000 0.0000
vn 0.0000 -1.0000 0.0000
vn 0.0000 1.0000 0.0000
vn 1.0000 0.0000 0.0000
vn 0.8444 0.5358 0.0000
vn -0.8444 0.5358 0.0000
vn 0.0000 0.0000 -1.0000
usemtl Material
s off
f 2/1/1 7/2/1 8/3/1 11/4/1 12/5/1 4/6/1
f 4/7/2 12/8/2 9/9/2 3/10/2
f 3/11/3 1/12/3 2/1/3 4/13/3
f 5/14/4 10/15/4 11/16/4 8/17/4
f 1/12/5 6/18/5 7/2/5 2/1/5
f 5/14/6 8/17/6 7/19/6 6/20/6
f 11/21/7 10/22/7 9/23/7 12/24/7
f 3/10/8 9/9/8 10/25/8 5/26/8 6/18/8 1/12/8
o Cube.001
v -0.373991 -2.699785 0.081656
v -0.373991 1.028405 0.081656
v -0.373991 -2.699785 -0.081656
v -0.373991 1.028405 -0.081656
v -0.210679 -2.699785 0.081656
v -0.210679 1.028405 0.081656
v -0.210679 -2.699785 -0.081656
v -0.210679 1.028405 -0.081656
vt 0.972834 0.759567
vt 0.976384 0.759567
vt 0.976384 0.763117
vt 0.972834 0.763117
vt 0.976384 0.766667
vt 0.972834 0.766667
vt 0.976384 0.770217
vt 0.972834 0.770217
vt 0.976384 0.773767
vt 0.972834 0.773767
vt 0.969284 0.766667
vt 0.969284 0.770217
vt 0.979935 0.766667
vt 0.979935 0.770217
vn -1.0000 0.0000 0.0000
vn 0.0000 0.0000 -1.0000
vn 1.0000 0.0000 0.0000
vn 0.0000 0.0000 1.0000
vn 0.0000 -1.0000 0.0000
vn 0.0000 1.0000 0.0000
usemtl Material
s off
f 13/27/9 14/28/9 16/29/9 15/30/9
f 15/30/10 16/29/10 20/31/10 19/32/10
f 19/32/11 20/31/11 18/33/11 17/34/11
f 17/34/12 18/33/12 14/35/12 13/36/12
f 15/37/13 19/32/13 17/34/13 13/38/13
f 20/31/14 16/39/14 14/40/14 18/33/14
o Cube.002
v 0.250542 -1.715325 0.081656
v 0.250542 1.078245 0.081656
v 0.250542 -1.715325 -0.081656
v 0.250542 1.078245 -0.081656
v 0.413855 -1.715325 0.081656
v 0.413855 1.078245 0.081656
v 0.413855 -1.715325 -0.081656
v 0.413855 1.078245 -0.081656
vt 0.973169 0.760906
vt 0.976050 0.760906
vt 0.976050 0.763786
vt 0.973169 0.763786
vt 0.976050 0.766667
vt 0.973169 0.766667
vt 0.976050 0.769547
vt 0.973169 0.769547
vt 0.976050 0.772428
vt 0.973169 0.772428
vt 0.970289 0.766667
vt 0.970289 0.769547
vt 0.978930 0.766667
vt 0.978930 0.769547
vn -1.0000 0.0000 0.0000
vn 0.0000 0.0000 -1.0000
vn 1.0000 0.0000 0.0000
vn 0.0000 0.0000 1.0000
vn 0.0000 -1.0000 0.0000
vn 0.0000 1.0000 0.0000
usemtl Material
s off
f 21/41/15 22/42/15 24/43/15 23/44/15
f 23/44/16 24/43/16 28/45/16 27/46/16
f 27/46/17 28/45/17 26/47/17 25/48/17
f 25/48/18 26/47/18 22/49/18 21/50/18
f 23/51/19 27/46/19 25/48/19 21/52/19
f 28/45/20 24/53/20 22/54/20 26/47/20
