# Blender v2.91.0 OBJ File: 'untitled.blend'
# www.blender.org
mtllib electromagnet.mtl
o Cylinder_Cylinder.001
v 0.000000 -1.108459 -0.311420
v 0.000000 1.108459 -0.311420
v 0.269698 -1.108459 -0.155710
v 0.269698 1.108459 -0.155710
v 0.269698 -1.108459 0.155710
v 0.269698 1.108459 0.155710
v -0.000000 -1.108459 0.311420
v -0.000000 1.108459 0.311420
v -0.269698 -1.108459 0.155710
v -0.269698 1.108459 0.155710
v -0.269698 -1.108459 -0.155710
v -0.269698 1.108459 -0.155710
v -0.000000 -0.889170 -0.311420
v -0.000000 0.889170 -0.311420
v 0.269698 0.889170 -0.155710
v 0.269698 -0.889170 -0.155710
v 0.269698 0.889170 0.155710
v 0.269698 -0.889170 0.155710
v -0.000000 0.889170 0.311420
v -0.000000 -0.889170 0.311420
v -0.269698 0.889170 0.155710
v -0.269698 -0.889170 0.155710
v -0.269698 0.889170 -0.155710
v -0.269698 -0.889170 -0.155710
v -0.000000 -0.889170 -0.390768
v -0.000000 0.889170 -0.390768
v 0.338415 0.889170 -0.195384
v 0.338415 -0.889170 -0.195384
v 0.338415 0.889170 0.195384
v 0.338415 -0.889170 0.195384
v -0.000000 0.889170 0.390768
v -0.000000 -0.889170 0.390768
v -0.338415 0.889170 0.195384
v -0.338415 -0.889170 0.195384
v -0.338415 0.889170 -0.195384
v -0.338415 -0.889170 -0.195384
vt 0.973925 0.133888
vt 0.973925 0.133512
vt 0.974302 0.133512
vt 0.974302 0.133888
vt 0.974678 0.133512
vt 0.974678 0.133888
vt 0.975054 0.133512
vt 0.975054 0.133888
vt 0.975430 0.133512
vt 0.975430 0.133888
vt 0.975149 0.134934
vt 0.975618 0.134663
vt 0.976088 0.134934
vt 0.976088 0.135476
vt 0.975618 0.135747
vt 0.975149 0.135476
vt 0.975807 0.133512
vt 0.975807 0.133888
vt 0.976183 0.133512
vt 0.976183 0.133888
vt 0.974490 0.134663
vt 0.974021 0.134934
vt 0.974021 0.135476
vt 0.974490 0.135747
vt 0.974959 0.135476
vt 0.974959 0.134934
vt 0.975807 0.134641
vt 0.975807 0.134265
vt 0.976183 0.134265
vt 0.976183 0.134641
vt 0.715127 0.035499
vt 0.714750 0.035499
vt 0.714750 0.035499
vt 0.715127 0.035499
vt 0.975430 0.134641
vt 0.975430 0.134265
vt 0.714374 0.035123
vt 0.714750 0.035123
vt 0.714750 0.035123
vt 0.714374 0.035123
vt 0.975054 0.134641
vt 0.975054 0.134265
vt 0.715879 0.035499
vt 0.715503 0.035499
vt 0.715503 0.035499
vt 0.715879 0.035499
vt 0.974678 0.134641
vt 0.974678 0.134265
vt 0.713998 0.035499
vt 0.713622 0.035499
vt 0.713622 0.035499
vt 0.713998 0.035499
vt 0.974302 0.134641
vt 0.974302 0.134265
vt 0.715127 0.035123
vt 0.715503 0.035123
vt 0.715503 0.035123
vt 0.715127 0.035123
vt 0.973925 0.134641
vt 0.973925 0.134265
vt 0.714374 0.035499
vt 0.714374 0.035499
vt 0.715879 0.035123
vt 0.713998 0.035123
vt 0.713622 0.035123
vt 0.713622 0.035123
vt 0.713998 0.035123
vt 0.715879 0.035123
vn 0.5000 -0.0000 -0.8660
vn 1.0000 -0.0000 0.0000
vn 0.5000 -0.0000 0.8660
vn -0.5000 -0.0000 0.8660
vn 0.0000 1.0000 -0.0000
vn -1.0000 -0.0000 0.0000
vn -0.5000 -0.0000 -0.8660
vn 0.0000 -1.0000 -0.0000
usemtl Material
s off
f 14/1/1 2/2/1 4/3/1 15/4/1
f 15/4/2 4/3/2 6/5/2 17/6/2
f 17/6/3 6/5/3 8/7/3 19/8/3
f 19/8/4 8/7/4 10/9/4 21/10/4
f 4/11/5 2/12/5 12/13/5 10/14/5 8/15/5 6/16/5
f 21/10/6 10/9/6 12/17/6 23/18/6
f 23/18/7 12/17/7 2/19/7 14/20/7
f 1/21/8 3/22/8 5/23/8 7/24/8 9/25/8 11/26/8
f 11/27/7 24/28/7 13/29/7 1/30/7
f 22/31/8 20/32/8 32/33/8 34/34/8
f 9/35/6 22/36/6 24/28/6 11/27/6
f 17/37/5 19/38/5 31/39/5 29/40/5
f 7/41/4 20/42/4 22/36/4 9/35/4
f 13/43/8 24/44/8 36/45/8 25/46/8
f 5/47/3 18/48/3 20/42/3 7/41/3
f 16/49/8 13/50/8 25/51/8 28/52/8
f 3/53/2 16/54/2 18/48/2 5/47/2
f 21/55/5 23/56/5 35/57/5 33/58/5
f 1/59/1 13/60/1 16/54/1 3/53/1
f 20/32/8 18/61/8 30/62/8 32/33/8
f 36/45/7 35/57/7 26/63/7 25/46/7
f 34/34/6 33/58/6 35/57/6 36/45/6
f 32/33/4 31/39/4 33/58/4 34/34/4
f 30/62/3 29/40/3 31/39/3 32/33/3
f 28/52/2 27/64/2 29/40/2 30/62/2
f 25/51/1 26/65/1 27/64/1 28/52/1
f 14/66/5 15/67/5 27/64/5 26/65/5
f 23/56/5 14/68/5 26/63/5 35/57/5
f 18/61/8 16/49/8 28/52/8 30/62/8
f 19/38/5 21/55/5 33/58/5 31/39/5
f 24/44/8 22/31/8 34/34/8 36/45/8
f 15/67/5 17/37/5 29/40/5 27/64/5
