# Blender v2.91.0 OBJ File: 'magnet.blend'
# www.blender.org
mtllib magnet.mtl
o Cylinder_Cylinder.007
v 0.000000 -0.404592 -2.248082
v 0.000000 0.404592 -2.248082
v 0.694696 -0.404592 -2.138053
v 0.694696 0.404592 -2.138053
v 1.321390 -0.404592 -1.818737
v 1.321390 0.404592 -1.818737
v 1.818737 -0.404592 -1.321390
v 1.818737 0.404592 -1.321390
v 2.138053 -0.404592 -0.694696
v 2.138053 0.404592 -0.694696
v 2.248082 -0.404592 0.000000
v 2.248082 0.404592 0.000000
v -2.248082 -0.404592 -0.000002
v -2.248082 0.404592 -0.000002
v -2.138053 -0.404592 -0.694698
v -2.138053 0.404592 -0.694698
v -1.818735 -0.404592 -1.321392
v -1.818735 0.404592 -1.321392
v -1.321387 -0.404592 -1.818739
v -1.321387 0.404592 -1.818739
v -0.694693 -0.404592 -2.138054
v -0.694693 0.404592 -2.138054
v 0.000000 -0.404592 -1.486642
v -1.413880 -0.404592 -0.459399
v 0.000000 0.404592 -1.486642
v -1.413880 0.404592 -0.459399
v 0.459398 -0.404592 -1.413880
v 0.459398 0.404592 -1.413880
v -1.202717 -0.404592 -0.873828
v -1.202717 0.404592 -0.873828
v 0.873826 -0.404592 -1.202718
v 0.873826 0.404592 -1.202718
v -0.873825 -0.404592 -1.202720
v -0.873825 0.404592 -1.202720
v 1.202718 -0.404592 -0.873826
v 1.202718 0.404592 -0.873826
v -0.459396 -0.404592 -1.413881
v -0.459396 0.404592 -1.413881
v 1.413880 -0.404592 -0.459398
v 1.413880 0.404592 -0.459398
v 1.486642 -0.404592 0.000000
v 1.486642 0.404592 0.000000
v -1.486642 0.404592 -0.000001
v -1.486642 -0.404592 -0.000001
v 2.248082 -0.404592 3.572119
v 2.248082 0.404592 3.572119
v -2.248082 -0.404592 3.572117
v -2.248082 0.404592 3.572117
v 1.486642 -0.404592 3.572119
v 1.486642 0.404592 3.572119
v -1.486642 0.404592 3.572117
v -1.486642 -0.404592 3.572117
vt 0.226460 0.947086
vt 0.226445 0.946944
vt 0.226460 0.946944
vt 0.226445 0.947086
vt 0.226431 0.946944
vt 0.226431 0.947086
vt 0.226417 0.946944
vt 0.226417 0.947086
vt 0.226403 0.946944
vt 0.226403 0.947086
vt 0.226389 0.946944
vt 0.024942 0.959359
vt 0.024692 0.956853
vt 0.024942 0.956853
vt 0.024692 0.959359
vt 0.024441 0.956853
vt 0.024441 0.959359
vt 0.024190 0.956853
vt 0.024190 0.959359
vt 0.023940 0.956853
vt 0.023940 0.959359
vt 0.023689 0.956853
vt 0.226460 0.947008
vt 0.226445 0.947022
vt 0.226460 0.947022
vt 0.226445 0.947008
vt 0.226431 0.947022
vt 0.226431 0.947008
vt 0.226417 0.947022
vt 0.226403 0.947008
vt 0.226417 0.947008
vt 0.226389 0.947008
vt 0.226403 0.947022
vt 0.024692 0.958233
vt 0.024942 0.957978
vt 0.024692 0.957978
vt 0.024441 0.958233
vt 0.024441 0.957978
vt 0.024190 0.958233
vt 0.024190 0.957978
vt 0.023940 0.958233
vt 0.023940 0.957978
vt 0.023689 0.958233
vt 0.226287 0.946928
vt 0.226260 0.946916
vt 0.226273 0.946910
vt 0.226432 0.946887
vt 0.226425 0.946900
vt 0.226389 0.947086
vt 0.023689 0.959359
vt 0.226389 0.947022
vt 0.024942 0.958233
vt 0.023689 0.957978
vt 0.226315 0.946873
vt 0.226311 0.946894
vt 0.226289 0.946887
vt 0.226302 0.946913
vt 0.226283 0.946900
vt 0.226268 0.946938
vt 0.226246 0.946941
vt 0.226246 0.946918
vt 0.024942 0.956802
vt 0.024570 0.956744
vt 0.024696 0.956356
vt 0.024235 0.956573
vt 0.023969 0.956307
vt 0.024299 0.956067
vt 0.023798 0.955971
vt 0.024186 0.955845
vt 0.023739 0.955599
vt 0.024147 0.955599
vt 0.226292 0.946873
vt 0.024475 0.956243
vt 0.024942 0.956395
vt 0.026245 0.955599
vt 0.026304 0.955971
vt 0.026692 0.955845
vt 0.026475 0.956307
vt 0.026805 0.956067
vt 0.026741 0.956573
vt 0.027077 0.956744
vt 0.026981 0.956243
vt 0.027203 0.956356
vt 0.026653 0.955599
vt 0.027448 0.956395
vt 0.027448 0.956802
vt 0.226389 0.946941
vt 0.226403 0.946916
vt 0.226415 0.946910
vt 0.226454 0.946894
vt 0.226457 0.946873
vt 0.226434 0.946873
vt 0.226389 0.946918
vt 0.226292 0.946873
vt 0.226315 0.946873
vt 0.226389 0.947086
vt 0.226389 0.946944
vt 0.023739 0.955599
vt 0.024147 0.955599
vt 0.024942 0.956853
vt 0.024942 0.959359
vt 0.024942 0.958233
vt 0.024942 0.957978
vt 0.226457 0.946873
vt 0.226434 0.946873
vt 0.026653 0.955599
vt 0.026245 0.955599
vt 0.226389 0.947008
vt 0.226389 0.947022
vn 0.1564 0.0000 -0.9877
vn 0.4540 0.0000 -0.8910
vn 0.7071 0.0000 -0.7071
vn 0.8910 0.0000 -0.4540
vn 0.9877 0.0000 -0.1564
vn -0.9877 0.0000 -0.1564
vn -0.8910 0.0000 -0.4540
vn -0.7071 0.0000 -0.7071
vn -0.4540 0.0000 -0.8910
vn -0.1564 0.0000 -0.9877
vn -0.1564 0.0000 0.9877
vn -0.4540 0.0000 0.8910
vn -0.7071 0.0000 0.7071
vn -0.8910 0.0000 0.4540
vn -0.9877 0.0000 0.1564
vn 0.9877 0.0000 0.1564
vn 0.8910 0.0000 0.4540
vn 0.7071 0.0000 0.7071
vn 0.4540 0.0000 0.8910
vn 0.1564 0.0000 0.9877
vn 0.0000 1.0000 -0.0000
vn 0.0000 -1.0000 0.0000
vn 1.0000 0.0000 0.0000
vn -1.0000 0.0000 0.0000
vn -0.0000 0.0000 1.0000
usemtl Material
s off
f 2/1/1 3/2/1 1/3/1
f 4/4/2 5/5/2 3/2/2
f 6/6/3 7/7/3 5/5/3
f 8/8/4 9/9/4 7/7/4
f 10/10/5 11/11/5 9/9/5
f 14/12/6 15/13/6 13/14/6
f 16/15/7 17/16/7 15/13/7
f 18/17/8 19/18/8 17/16/8
f 20/19/9 21/20/9 19/18/9
f 22/21/10 1/22/10 21/20/10
f 23/23/11 28/24/11 25/25/11
f 27/26/12 32/27/12 28/24/12
f 31/28/13 36/29/13 32/27/13
f 39/30/14 36/29/14 35/31/14
f 41/32/15 40/33/15 39/30/15
f 26/34/16 44/35/16 24/36/16
f 24/36/17 30/37/17 26/34/17
f 29/38/18 34/39/18 30/37/18
f 33/40/19 38/41/19 34/39/19
f 37/42/20 25/43/20 38/41/20
f 6/44/21 28/45/21 32/46/21
f 39/47/22 35/48/22 7/7/22
f 2/1/1 4/4/1 3/2/1
f 4/4/2 6/6/2 5/5/2
f 6/6/3 8/8/3 7/7/3
f 8/8/4 10/10/4 9/9/4
f 10/10/5 12/49/5 11/11/5
f 14/12/6 16/15/6 15/13/6
f 16/15/7 18/17/7 17/16/7
f 18/17/8 20/19/8 19/18/8
f 20/19/9 22/21/9 21/20/9
f 22/21/10 2/50/10 1/22/10
f 23/23/11 27/26/11 28/24/11
f 27/26/12 31/28/12 32/27/12
f 31/28/13 35/31/13 36/29/13
f 39/30/14 40/33/14 36/29/14
f 41/32/15 42/51/15 40/33/15
f 26/34/16 43/52/16 44/35/16
f 24/36/17 29/38/17 30/37/17
f 29/38/18 33/40/18 34/39/18
f 33/40/19 37/42/19 38/41/19
f 37/42/20 23/53/20 25/43/20
f 12/54/21 10/55/21 40/56/21
f 10/55/21 8/57/21 40/56/21
f 8/57/21 6/44/21 36/58/21
f 40/56/21 8/57/21 36/58/21
f 6/44/21 4/59/21 28/45/21
f 4/59/21 2/60/21 25/61/21
f 2/62/21 22/63/21 38/64/21
f 22/63/21 20/65/21 38/64/21
f 20/65/21 18/66/21 30/67/21
f 18/66/21 16/68/21 26/69/21
f 16/68/21 14/70/21 26/69/21
f 26/69/21 14/70/21 43/71/21
f 18/66/21 26/69/21 30/67/21
f 4/59/21 25/61/21 28/45/21
f 12/54/21 40/56/21 42/72/21
f 20/65/21 30/67/21 34/73/21
f 20/65/21 34/73/21 38/64/21
f 2/62/21 38/64/21 25/74/21
f 32/46/21 36/58/21 6/44/21
f 13/75/22 15/76/22 24/77/22
f 15/76/22 17/78/22 29/79/22
f 17/78/22 19/80/22 29/79/22
f 19/80/22 21/81/22 33/82/22
f 29/79/22 19/80/22 33/82/22
f 21/81/22 37/83/22 33/82/22
f 15/76/22 29/79/22 24/77/22
f 13/75/22 24/77/22 44/84/22
f 23/85/22 37/83/22 21/81/22
f 21/81/22 1/86/22 23/85/22
f 1/87/22 3/2/22 27/88/22
f 3/2/22 5/5/22 31/89/22
f 5/5/22 7/7/22 31/89/22
f 7/7/22 9/90/22 39/47/22
f 9/90/22 11/91/22 41/92/22
f 9/90/22 41/92/22 39/47/22
f 1/87/22 27/88/22 23/93/22
f 31/89/22 27/88/22 3/2/22
f 35/48/22 31/89/22 7/7/22
f 12/54/21 42/72/21 50/94/21 46/95/21
f 11/11/23 12/49/23 46/96/23 45/97/23
f 43/71/21 14/70/21 48/98/21 51/99/21
f 14/12/24 13/14/24 47/100/24 48/101/24
f 44/35/23 43/52/23 51/102/23 52/103/23
f 41/92/22 11/91/22 45/104/22 49/105/22
f 13/75/22 44/84/22 52/106/22 47/107/22
f 42/51/24 41/32/24 49/108/24 50/109/24
f 48/98/25 47/107/25 52/103/25 51/99/25
f 46/95/25 50/94/25 49/108/25 45/104/25
