# Blender v2.90.1 OBJ File: 'player.blend'
# www.blender.org
mtllib player.mtl
o Cube
v 0.331431 0.766570 -0.073379
v 0.386133 0.657973 -0.073379
v 0.370111 0.734763 -0.073379
v 0.386133 -0.657973 -0.073379
v 0.331431 -0.766570 -0.073379
v 0.370111 -0.734763 -0.073379
v 0.433888 0.647685 0.073379
v 0.347636 0.808383 0.073379
v 0.408625 0.761315 0.073379
v 0.347636 -0.808383 0.073379
v 0.433888 -0.647685 0.073379
v 0.408625 -0.761315 0.073379
v -0.386133 0.657973 -0.073379
v -0.331431 0.766570 -0.073379
v -0.370111 0.734763 -0.073379
v -0.331431 -0.766570 -0.073379
v -0.386133 -0.657973 -0.073379
v -0.370111 -0.734763 -0.073379
v -0.347636 0.808383 0.073379
v -0.433888 0.647685 0.073379
v -0.408625 0.761315 0.073379
v -0.433888 -0.647685 0.073379
v -0.347636 -0.808383 0.073379
v -0.408625 -0.761315 0.073379
v -0.408625 -0.761315 -0.073379
v -0.347636 -0.808383 -0.073379
v -0.433888 -0.647685 -0.073379
v 0.408625 0.761315 -0.073379
v 0.347636 0.808383 -0.073379
v 0.433888 0.647685 -0.073379
v -0.347636 0.808383 -0.073379
v -0.408625 0.761315 -0.073379
v -0.433888 0.647685 -0.073379
v 0.347636 -0.808383 -0.073379
v 0.408625 -0.761315 -0.073379
v 0.433888 -0.647685 -0.073379
vt 0.395255 0.955556
vt 0.395958 0.955556
vt 0.395958 0.956433
vt 0.395255 0.956433
vt 0.396133 0.953800
vt 0.396836 0.953800
vt 0.396836 0.954678
vt 0.396133 0.954678
vt 0.284717 0.984298
vt 0.284726 0.984219
vt 0.284805 0.984211
vt 0.285508 0.984211
vt 0.285587 0.984219
vt 0.285595 0.984298
vt 0.285595 0.985001
vt 0.285570 0.985063
vt 0.285508 0.985089
vt 0.284805 0.985089
vt 0.284743 0.985063
vt 0.284717 0.985001
vt 0.397010 0.955556
vt 0.397714 0.955556
vt 0.397714 0.956433
vt 0.397010 0.956433
vt 0.396133 0.955556
vt 0.396836 0.955556
vt 0.396836 0.956433
vt 0.396133 0.956433
vt 0.395168 0.956433
vt 0.395168 0.955556
vt 0.396046 0.954678
vt 0.396046 0.953800
vt 0.396915 0.956442
vt 0.396915 0.955547
vt 0.397801 0.955556
vt 0.397801 0.956433
vt 0.396923 0.953800
vt 0.396923 0.954678
vt 0.396054 0.955547
vt 0.396054 0.956442
vt 0.985927 0.132550
vt 0.985944 0.132510
vt 0.985984 0.132494
vt 0.986672 0.132494
vt 0.986712 0.132510
vt 0.986729 0.132550
vt 0.986732 0.133242
vt 0.986720 0.133287
vt 0.986675 0.133299
vt 0.985981 0.133299
vt 0.985936 0.133286
vt 0.985924 0.133242
vt 0.386335 0.949177
vt 0.386318 0.949217
vt 0.386280 0.949210
vt 0.386306 0.949148
vt 0.386375 0.949160
vt 0.386367 0.949122
vt 0.387111 0.949953
vt 0.387123 0.949908
vt 0.387158 0.949913
vt 0.387149 0.949991
vt 0.387066 0.949965
vt 0.387070 0.950000
vt 0.387120 0.949217
vt 0.387103 0.949177
vt 0.387132 0.949148
vt 0.387158 0.949210
vt 0.387063 0.949160
vt 0.387070 0.949122
vt 0.386315 0.949908
vt 0.386327 0.949953
vt 0.386289 0.949991
vt 0.386280 0.949913
vt 0.386371 0.949965
vt 0.386367 0.950000
vn 0.0000 -1.0000 0.0000
vn -1.0000 0.0000 0.0000
vn -0.0000 0.0000 1.0000
vn 0.0000 1.0000 0.0000
vn 1.0000 0.0000 0.0000
vn -0.6110 -0.7917 0.0000
vn -0.9762 -0.2170 0.0000
vn 0.6110 0.7917 0.0000
vn 0.9762 0.2170 0.0000
vn -0.6110 0.7917 0.0000
vn -0.9762 0.2170 0.0000
vn 0.6110 -0.7917 0.0000
vn 0.9762 -0.2170 0.0000
vn -0.0000 0.0000 -1.0000
usemtl Material
s off
f 26/1/1 34/2/1 10/3/1 23/4/1
f 22/5/2 20/6/2 33/7/2 27/8/2
f 10/9/3 12/10/3 11/11/3 7/12/3 9/13/3 8/14/3 19/15/3 21/16/3 20/17/3 22/18/3 24/19/3 23/20/3
f 29/21/4 31/22/4 19/23/4 8/24/4
f 36/25/5 30/26/5 7/27/5 11/28/5
f 26/1/6 23/4/6 24/29/6 25/30/6
f 25/31/7 24/32/7 22/5/7 27/8/7
f 29/21/8 8/24/8 9/33/8 28/34/8
f 28/34/9 9/33/9 7/27/9 30/26/9
f 19/23/10 31/22/10 32/35/10 21/36/10
f 21/37/11 32/38/11 33/7/11 20/6/11
f 10/3/12 34/2/12 35/39/12 12/40/12
f 12/40/13 35/39/13 36/25/13 11/28/13
f 16/41/14 18/42/14 17/43/14 13/44/14 15/45/14 14/46/14 1/47/14 3/48/14 2/49/14 4/50/14 6/51/14 5/52/14
f 18/53/14 16/54/14 26/55/14 25/56/14
f 17/57/14 18/53/14 25/56/14 27/58/14
f 3/59/14 1/60/14 29/61/14 28/62/14
f 2/63/14 3/59/14 28/62/14 30/64/14
f 14/65/14 15/66/14 32/67/14 31/68/14
f 15/66/14 13/69/14 33/70/14 32/67/14
f 5/71/14 6/72/14 35/73/14 34/74/14
f 6/72/14 4/75/14 36/76/14 35/73/14
f 16/54/14 5/71/14 34/74/14 26/55/14
f 13/69/14 17/57/14 27/58/14 33/70/14
f 1/60/14 14/65/14 31/68/14 29/61/14
f 4/75/14 2/63/14 30/64/14 36/76/14
o Cylinder
v -0.192245 0.685404 0.032787
v -0.192245 0.657826 0.133825
v -0.092583 0.627865 0.032787
v -0.116467 0.614076 0.133825
v -0.092583 0.512786 0.032787
v -0.116467 0.526575 0.133825
v -0.192245 0.455246 0.032787
v -0.192245 0.482825 0.133825
v -0.291906 0.512786 0.032787
v -0.268023 0.526575 0.133825
v -0.291906 0.627865 0.032787
v -0.268023 0.614076 0.133825
v -0.092583 0.627865 0.133825
v -0.192245 0.685404 0.133825
v -0.092583 0.512786 0.133825
v -0.192245 0.455246 0.133825
v -0.291906 0.512786 0.133825
v -0.291906 0.627865 0.133825
vt 0.385142 0.949460
vt 0.385142 0.947883
vt 0.385668 0.947883
vt 0.385668 0.949460
vt 0.386193 0.947883
vt 0.386193 0.949460
vt 0.386719 0.947883
vt 0.386719 0.949460
vt 0.387244 0.947883
vt 0.387244 0.949460
vt 0.980759 0.122183
vt 0.981257 0.121895
vt 0.981756 0.122183
vt 0.981756 0.122759
vt 0.981257 0.123046
vt 0.980759 0.122759
vt 0.387770 0.947883
vt 0.387770 0.949460
vt 0.388296 0.947883
vt 0.388296 0.949460
vt 0.385930 0.949492
vt 0.385275 0.949870
vt 0.385275 0.950627
vt 0.385930 0.951006
vt 0.386586 0.950627
vt 0.386586 0.949870
vt 0.387507 0.949673
vt 0.387009 0.949961
vt 0.386852 0.949870
vt 0.387507 0.949492
vt 0.387009 0.950536
vt 0.386852 0.950627
vt 0.387507 0.950824
vt 0.387507 0.951006
vt 0.388006 0.950536
vt 0.388163 0.950627
vt 0.388006 0.949961
vt 0.388163 0.949870
vn 0.5000 0.8660 0.0000
vn 1.0000 -0.0000 0.0000
vn 0.5000 -0.8660 0.0000
vn -0.5000 -0.8660 0.0000
vn 0.0000 -0.0000 1.0000
vn -1.0000 0.0000 0.0000
vn -0.5000 0.8660 0.0000
vn -0.0000 0.0000 -1.0000
usemtl Material
s off
f 37/77/15 50/78/15 49/79/15 39/80/15
f 39/80/16 49/79/16 51/81/16 41/82/16
f 41/82/17 51/81/17 52/83/17 43/84/17
f 43/84/18 52/83/18 53/85/18 45/86/18
f 40/87/19 38/88/19 48/89/19 46/90/19 44/91/19 42/92/19
f 45/86/20 53/85/20 54/93/20 47/94/20
f 47/94/21 54/93/21 50/95/21 37/96/21
f 37/97/22 39/98/22 41/99/22 43/100/22 45/101/22 47/102/22
f 38/103/19 40/104/19 49/105/19 50/106/19
f 40/104/19 42/107/19 51/108/19 49/105/19
f 42/107/19 44/109/19 52/110/19 51/108/19
f 44/109/19 46/111/19 53/112/19 52/110/19
f 46/111/19 48/113/19 54/114/19 53/112/19
f 48/113/19 38/103/19 50/106/19 54/114/19
