# Blender v2.91.0 OBJ File: 'reostat.blend'
# www.blender.org
mtllib reostat.mtl
o Cylinder_Cylinder.009
v 0.000000 1.000000 -3.468905
v 0.000000 1.000000 3.468905
v 0.500000 0.866026 -3.468905
v 0.500000 0.866025 3.468905
v 0.866025 0.500000 -3.468905
v 0.866025 0.500000 3.468905
v 1.000000 0.000000 -3.468905
v 1.000000 -0.000000 3.468905
v 0.866025 -0.500000 -3.468905
v 0.866025 -0.500000 3.468905
v 0.500000 -0.866025 -3.468905
v 0.500000 -0.866026 3.468905
v 0.000000 -1.000000 -3.468905
v 0.000000 -1.000000 3.468905
v -0.500000 -0.866025 -3.468905
v -0.500000 -0.866026 3.468905
v -0.866025 -0.500000 -3.468905
v -0.866025 -0.500000 3.468905
v -1.000000 -0.000000 -3.468905
v -1.000000 -0.000001 3.468905
v -0.866026 0.500000 -3.468905
v -0.866026 0.499999 3.468905
v -0.500001 0.866025 -3.468905
v -0.500001 0.866025 3.468905
vt 0.922152 0.116572
vt 0.922152 0.111778
vt 0.922951 0.111778
vt 0.922951 0.116572
vt 0.923750 0.111778
vt 0.923750 0.116572
vt 0.924549 0.111778
vt 0.924549 0.116572
vt 0.925348 0.111778
vt 0.925348 0.116572
vt 0.926147 0.111778
vt 0.926147 0.116572
vt 0.926946 0.111778
vt 0.926946 0.116572
vt 0.927745 0.111778
vt 0.927745 0.116572
vt 0.928544 0.111778
vt 0.928544 0.116572
vt 0.929343 0.111778
vt 0.929343 0.116572
vt 0.930142 0.111778
vt 0.930142 0.116572
vt 0.928192 0.116976
vt 0.929343 0.116668
vt 0.930494 0.116976
vt 0.931336 0.117819
vt 0.931644 0.118969
vt 0.931336 0.120120
vt 0.930494 0.120962
vt 0.929343 0.121271
vt 0.928192 0.120962
vt 0.927350 0.120120
vt 0.927042 0.118969
vt 0.927350 0.117819
vt 0.930941 0.111778
vt 0.930941 0.116572
vt 0.931740 0.111778
vt 0.931740 0.116572
vt 0.924549 0.116668
vt 0.923398 0.116976
vt 0.922556 0.117819
vt 0.922248 0.118969
vt 0.922556 0.120120
vt 0.923398 0.120962
vt 0.924549 0.121271
vt 0.925699 0.120962
vt 0.926542 0.120120
vt 0.926850 0.118969
vt 0.926542 0.117819
vt 0.925699 0.116976
vn 0.2588 0.9659 0.0000
vn 0.7071 0.7071 0.0000
vn 0.9659 0.2588 0.0000
vn 0.9659 -0.2588 -0.0000
vn 0.7071 -0.7071 -0.0000
vn 0.2588 -0.9659 -0.0000
vn -0.2588 -0.9659 -0.0000
vn -0.7071 -0.7071 -0.0000
vn -0.9659 -0.2588 -0.0000
vn -0.9659 0.2588 0.0000
vn -0.0000 0.0000 1.0000
vn -0.7071 0.7071 0.0000
vn -0.2588 0.9659 0.0000
vn 0.0000 0.0000 -1.0000
usemtl Material
s off
f 1/1/1 2/2/1 4/3/1 3/4/1
f 3/4/2 4/3/2 6/5/2 5/6/2
f 5/6/3 6/5/3 8/7/3 7/8/3
f 7/8/4 8/7/4 10/9/4 9/10/4
f 9/10/5 10/9/5 12/11/5 11/12/5
f 11/12/6 12/11/6 14/13/6 13/14/6
f 13/14/7 14/13/7 16/15/7 15/16/7
f 15/16/8 16/15/8 18/17/8 17/18/8
f 17/18/9 18/17/9 20/19/9 19/20/9
f 19/20/10 20/19/10 22/21/10 21/22/10
f 4/23/11 2/24/11 24/25/11 22/26/11 20/27/11 18/28/11 16/29/11 14/30/11 12/31/11 10/32/11 8/33/11 6/34/11
f 21/22/12 22/21/12 24/35/12 23/36/12
f 23/36/13 24/35/13 2/37/13 1/38/13
f 1/39/14 3/40/14 5/41/14 7/42/14 9/43/14 11/44/14 13/45/14 15/46/14 17/47/14 19/48/14 21/49/14 23/50/14
o Cube_Cube.005
v -1.452641 -1.452641 -3.300000
v -1.452641 1.452641 -3.300000
v -1.452641 -1.452641 -3.700000
v -1.452641 1.452641 -3.700000
v 1.452641 -1.452641 -3.300000
v 1.452641 1.452641 -3.300000
v 1.452641 -1.452641 -3.700000
v 1.452641 1.452641 -3.700000
vt 0.967122 0.944842
vt 0.970437 0.944842
vt 0.970437 0.948157
vt 0.967122 0.948157
vt 0.970437 0.951472
vt 0.967122 0.951472
vt 0.970437 0.954787
vt 0.967122 0.954787
vt 0.970437 0.958102
vt 0.967122 0.958102
vt 0.963807 0.951472
vt 0.963807 0.954787
vt 0.973752 0.951472
vt 0.973752 0.954787
vn -1.0000 0.0000 0.0000
vn 0.0000 0.0000 -1.0000
vn 1.0000 0.0000 0.0000
vn 0.0000 0.0000 1.0000
vn 0.0000 -1.0000 0.0000
vn 0.0000 1.0000 0.0000
usemtl Material
s off
f 25/51/15 26/52/15 28/53/15 27/54/15
f 27/54/16 28/53/16 32/55/16 31/56/16
f 31/56/17 32/55/17 30/57/17 29/58/17
f 29/58/18 30/57/18 26/59/18 25/60/18
f 27/61/19 31/56/19 29/58/19 25/62/19
f 32/55/20 28/63/20 26/64/20 30/57/20
o Cube.001_Cube.006
v -1.452641 -1.452641 3.700000
v -1.452641 1.452641 3.700000
v -1.452641 -1.452641 3.300000
v -1.452641 1.452641 3.300000
v 1.452641 -1.452641 3.700000
v 1.452641 1.452641 3.700000
v 1.452641 -1.452641 3.300000
v 1.452641 1.452641 3.300000
vt 0.967122 0.944842
vt 0.970437 0.944842
vt 0.970437 0.948157
vt 0.967122 0.948157
vt 0.970437 0.951472
vt 0.967122 0.951472
vt 0.970437 0.954787
vt 0.967122 0.954787
vt 0.970437 0.958102
vt 0.967122 0.958102
vt 0.963807 0.951472
vt 0.963807 0.954787
vt 0.973752 0.951472
vt 0.973752 0.954787
vn -1.0000 0.0000 0.0000
vn 0.0000 0.0000 -1.0000
vn 1.0000 0.0000 0.0000
vn 0.0000 0.0000 1.0000
vn 0.0000 -1.0000 0.0000
vn 0.0000 1.0000 0.0000
usemtl Material
s off
f 33/65/21 34/66/21 36/67/21 35/68/21
f 35/68/22 36/67/22 40/69/22 39/70/22
f 39/70/23 40/69/23 38/71/23 37/72/23
f 37/72/24 38/71/24 34/73/24 33/74/24
f 35/75/25 39/70/25 37/72/25 33/76/25
f 40/69/26 36/77/26 34/78/26 38/71/26
