# Blender v2.91.0 OBJ File: 'reostat2.blend'
# www.blender.org
mtllib reostat2.mtl
o Cube.002_Cube
v -0.788556 1.001916 0.612120
v -0.788556 2.226156 0.612120
v -0.788556 1.001916 -0.612120
v -0.788556 2.226156 -0.612120
v 0.788556 1.001916 0.612120
v 0.788556 2.226156 0.612120
v 0.788556 1.001916 -0.612120
v 0.788556 2.226156 -0.612120
vt 0.976847 0.947870
vt 0.980398 0.947870
vt 0.980398 0.951421
vt 0.976847 0.951421
vt 0.980398 0.954971
vt 0.976847 0.954971
vt 0.980398 0.958522
vt 0.976847 0.958522
vt 0.980398 0.962073
vt 0.976847 0.962073
vt 0.973296 0.954971
vt 0.973296 0.958522
vt 0.983948 0.954971
vt 0.983948 0.958522
vn -1.0000 0.0000 0.0000
vn 0.0000 0.0000 -1.0000
vn 1.0000 0.0000 0.0000
vn 0.0000 0.0000 1.0000
vn 0.0000 -1.0000 0.0000
vn 0.0000 1.0000 0.0000
usemtl Material
s off
f 1/1/1 2/2/1 4/3/1 3/4/1
f 3/4/2 4/3/2 8/5/2 7/6/2
f 7/6/3 8/5/3 6/7/3 5/8/3
f 5/8/4 6/7/4 2/9/4 1/10/4
f 3/11/5 7/6/5 5/8/5 1/12/5
f 8/5/6 4/13/6 2/14/6 6/7/6
o Cube.003_Cube.002
v -0.676207 0.352016 0.404576
v -0.676207 1.281425 0.404576
v -0.676207 0.352016 -0.404576
v -0.676207 1.281425 -0.404576
v -0.523793 0.352016 0.404576
v -0.523793 1.281425 0.404576
v -0.523793 0.352016 -0.404576
v -0.523793 1.281425 -0.404576
vt 0.977942 0.873178
vt 0.976842 0.873178
vt 0.976842 0.872077
vt 0.977942 0.872077
vt 0.976842 0.870977
vt 0.977942 0.870977
vt 0.976842 0.869876
vt 0.977942 0.869876
vt 0.976842 0.868775
vt 0.977942 0.868775
vt 0.979043 0.870977
vt 0.979043 0.869876
vt 0.975741 0.870977
vt 0.975741 0.869876
vn -1.0000 0.0000 0.0000
vn 0.0000 0.0000 -1.0000
vn 1.0000 0.0000 0.0000
vn 0.0000 0.0000 1.0000
vn 0.0000 -1.0000 0.0000
vn 0.0000 1.0000 0.0000
usemtl Material
s off
f 9/15/7 10/16/7 12/17/7 11/18/7
f 11/18/8 12/17/8 16/19/8 15/20/8
f 15/20/9 16/19/9 14/21/9 13/22/9
f 13/22/10 14/21/10 10/23/10 9/24/10
f 11/25/11 15/20/11 13/22/11 9/26/11
f 16/19/12 12/27/12 10/28/12 14/21/12
o Cube.004_Cube.003
v 0.523793 0.352016 0.404576
v 0.523793 1.281425 0.404576
v 0.523793 0.352016 -0.404576
v 0.523793 1.281425 -0.404576
v 0.676207 0.352016 0.404576
v 0.676207 1.281425 0.404576
v 0.676207 0.352016 -0.404576
v 0.676207 1.281425 -0.404576
vt 0.977440 0.874667
vt 0.977344 0.874667
vt 0.977344 0.874572
vt 0.977440 0.874572
vt 0.977344 0.874476
vt 0.977440 0.874476
vt 0.977344 0.874381
vt 0.977440 0.874381
vt 0.977344 0.874286
vt 0.977440 0.874286
vt 0.977535 0.874476
vt 0.977535 0.874381
vt 0.977249 0.874476
vt 0.977249 0.874381
vn -1.0000 0.0000 0.0000
vn 0.0000 0.0000 -1.0000
vn 1.0000 0.0000 0.0000
vn 0.0000 0.0000 1.0000
vn 0.0000 -1.0000 0.0000
vn 0.0000 1.0000 0.0000
usemtl Material
s off
f 17/29/13 18/30/13 20/31/13 19/32/13
f 19/32/14 20/31/14 24/33/14 23/34/14
f 23/34/15 24/33/15 22/35/15 21/36/15
f 21/36/16 22/35/16 18/37/16 17/38/16
f 19/39/17 23/34/17 21/36/17 17/40/17
f 24/33/18 20/41/18 18/42/18 22/35/18
