# Blender v2.90.1 OBJ File: 'resistor.blend'
# www.blender.org
mtllib resistor.mtl
o Cylinder
v -1.388031 0.000000 -0.546307
v 1.388031 -0.000000 -0.546307
v -1.388031 -0.473116 -0.273154
v 1.388031 -0.473116 -0.273154
v -1.388031 -0.473116 0.273154
v 1.388031 -0.473116 0.273154
v -1.388031 0.000000 0.546307
v 1.388031 -0.000000 0.546307
v -1.388031 0.473116 0.273154
v 1.388031 0.473116 0.273154
v -1.388031 0.473116 -0.273154
v 1.388031 0.473116 -0.273154
vt 0.833273 0.593759
vt 0.833273 0.606719
vt 0.828953 0.606719
vt 0.828953 0.593759
vt 0.824633 0.606719
vt 0.824633 0.593759
vt 0.820312 0.606719
vt 0.820312 0.593759
vt 0.815992 0.606719
vt 0.815992 0.593759
vt 0.819220 0.590390
vt 0.813832 0.593500
vt 0.808445 0.590390
vt 0.808445 0.584169
vt 0.813832 0.581058
vt 0.819220 0.584169
vt 0.811672 0.606719
vt 0.811672 0.593759
vt 0.807352 0.606719
vt 0.807352 0.593759
vt 0.826793 0.593500
vt 0.832180 0.590390
vt 0.832180 0.584169
vt 0.826793 0.581058
vt 0.821405 0.584169
vt 0.821405 0.590390
vn -0.0000 -0.5000 -0.8660
vn -0.0000 -1.0000 0.0000
vn -0.0000 -0.5000 0.8660
vn 0.0000 0.5000 0.8660
vn 1.0000 -0.0000 0.0000
vn 0.0000 1.0000 0.0000
vn 0.0000 0.5000 -0.8660
vn -1.0000 -0.0000 0.0000
usemtl Material.001
s off
f 1/1/1 2/2/1 4/3/1 3/4/1
f 3/4/2 4/3/2 6/5/2 5/6/2
f 5/6/3 6/5/3 8/7/3 7/8/3
f 7/8/4 8/7/4 10/9/4 9/10/4
f 4/11/5 2/12/5 12/13/5 10/14/5 8/15/5 6/16/5
f 9/10/6 10/9/6 12/17/6 11/18/6
f 11/18/7 12/17/7 2/19/7 1/20/7
f 1/21/8 3/22/8 5/23/8 7/24/8 9/25/8 11/26/8
o Cube_Cube.001
v -5.000000 -0.100000 0.100000
v -5.000000 0.100000 0.100000
v -5.000000 -0.100000 -0.100000
v -5.000000 0.100000 -0.100000
v 5.000000 -0.100000 0.100000
v 5.000000 0.100000 0.100000
v 5.000000 -0.100000 -0.100000
v 5.000000 0.100000 -0.100000
vt 0.975201 0.670076
vt 0.981830 0.670076
vt 0.981830 0.676705
vt 0.975201 0.676705
vt 0.981830 0.683333
vt 0.975201 0.683333
vt 0.981830 0.689962
vt 0.975201 0.689962
vt 0.981830 0.696591
vt 0.975201 0.696591
vt 0.968572 0.683333
vt 0.968572 0.689962
vt 0.988459 0.683333
vt 0.988459 0.689962
vn -1.0000 0.0000 0.0000
vn 0.0000 0.0000 -1.0000
vn 1.0000 0.0000 0.0000
vn 0.0000 0.0000 1.0000
vn 0.0000 -1.0000 0.0000
vn 0.0000 1.0000 0.0000
usemtl None
s off
f 13/27/9 14/28/9 16/29/9 15/30/9
f 15/30/10 16/29/10 20/31/10 19/32/10
f 19/32/11 20/31/11 18/33/11 17/34/11
f 17/34/12 18/33/12 14/35/12 13/36/12
f 15/37/13 19/32/13 17/34/13 13/38/13
f 20/31/14 16/39/14 14/40/14 18/33/14
