# Blender v2.90.1 OBJ File: 'table.blend'
# www.blender.org
mtllib table.mtl
o Cube
v 8.000000 -0.300000 5.000000
v -8.000000 -0.300000 5.000000
v 7.520742 0.300000 4.372968
v 8.000000 0.178028 5.000000
v -8.000000 0.178028 5.000000
v -7.520742 0.300000 4.372968
v 7.520742 0.300000 -4.267365
v 7.321669 0.300000 -4.487247
v 7.601144 -0.300000 -5.000000
v 8.000000 -0.300000 -4.559454
v -7.321669 0.300000 -4.487247
v -7.520742 0.300000 -4.267365
v -8.000000 -0.300000 -4.559454
v -7.601144 -0.300000 -5.000000
v 8.000000 0.300000 4.858906
v -8.000000 0.300000 4.858906
v 7.601144 0.300000 -5.000000
v 8.000000 0.300000 -4.559454
v -8.000000 0.300000 -4.559454
v -7.601144 0.300000 -5.000000
vt 0.970457 0.672291
vt 0.970526 0.672222
vt 0.973156 0.672222
vt 0.973225 0.672291
vt 0.973225 0.674991
vt 0.970457 0.674991
vt 0.973225 0.666685
vt 0.975955 0.666685
vt 0.975994 0.666724
vt 0.975994 0.669385
vt 0.973225 0.669385
vt 0.975955 0.674991
vt 0.975955 0.677759
vt 0.973225 0.677759
vt 0.972170 0.594555
vt 0.972205 0.594511
vt 0.974739 0.594511
vt 0.974773 0.594555
vt 0.974773 0.597090
vt 0.972170 0.597090
vt 0.975994 0.674991
vt 0.975994 0.677759
vt 0.973225 0.669523
vt 0.975994 0.669523
vt 0.975994 0.672153
vt 0.975994 0.672291
vt 0.976077 0.674867
vt 0.978679 0.674867
vt 0.978762 0.674952
vt 0.976111 0.672289
vt 0.976077 0.672333
vt 0.976063 0.672222
vt 0.978679 0.672333
vt 0.978645 0.672289
vt 0.978693 0.672222
vt 0.978762 0.672291
vn 0.0000 -1.0000 0.0000
vn -1.0000 0.0000 0.0000
vn 0.0000 0.0000 1.0000
vn 0.0000 1.0000 0.0000
vn 0.0000 0.7565 0.6540
vn 0.0000 0.0000 -1.0000
vn 0.7413 0.0000 -0.6712
vn -0.7413 0.0000 -0.6712
vn 1.0000 0.0000 0.0000
usemtl Material
s off
f 13/1/1 14/2/1 9/3/1 10/4/1 1/5/1 2/6/1
f 2/7/2 5/8/2 16/9/2 19/10/2 13/11/2
f 1/5/3 4/12/3 5/13/3 2/14/3
f 7/15/4 8/16/4 11/17/4 12/18/4 6/19/4 3/20/4
f 15/21/5 16/22/5 5/13/5 4/12/5
f 14/23/6 20/24/6 17/25/6 9/3/6
f 18/26/7 10/4/7 9/3/7 17/25/7
f 20/24/8 14/23/8 13/11/8 19/10/8
f 10/4/9 18/26/9 15/21/9 4/12/9 1/5/9
f 3/27/4 6/28/4 16/29/4 15/21/4
f 8/30/4 7/31/4 18/26/4 17/32/4
f 12/33/4 11/34/4 20/35/4 19/36/4
f 7/31/4 3/27/4 15/21/4 18/26/4
f 11/34/4 8/30/4 17/32/4 20/35/4
f 6/28/4 12/33/4 19/36/4 16/29/4
